<?xml version="1.0" encoding="UTF-8" standalone="no"?>
<!-- Created with Inkscape (http://www.inkscape.org/) -->
<svg id="svg2" xmlns:rdf="http://www.w3.org/1999/02/22-rdf-syntax-ns#" xmlns="http://www.w3.org/2000/svg" height="117.01mm" width="117.27mm" version="1.1" xmlns:cc="http://creativecommons.org/ns#" xmlns:dc="http://purl.org/dc/elements/1.1/" viewBox="0 0 415.53204 414.61361">
 <metadata id="metadata7">
  <rdf:RDF>
   <cc:Work rdf:about="">
    <dc:format>image/svg+xml</dc:format>
    <dc:type rdf:resource="http://purl.org/dc/dcmitype/StillImage"/>
    <dc:title/>
   </cc:Work>
  </rdf:RDF>
 </metadata>
 <g id="layer1" transform="translate(-165.84 -153.63)" fill="none">
  <g stroke="#000" stroke-width="1px">
   <path data-start="0" data-duration="75" id="path4138" d="m373.76 359.4c-15.697 12.075-24.021-15.202-20.069-26.09 10.71-29.505 50.266-29.313 72.249-14.048 39.323 27.305 36.878 84.57 8.0277 118.41-42.339 49.659-119.37 44.736-164.57 2.0069-60.248-56.95-52.722-154.34 4.0138-210.73 71.396-70.961 189.39-60.776 256.89 10.035 2.8793 3.0209 5.6623 6.1336 8.344 9.3312"/>
   <path data-start="0" data-duration="50" id="path4138-3" d="m447.37 375.7c-15.697 12.075-24.021-15.202-20.069-26.09 10.71-29.505 50.266-29.313 72.249-14.048 39.323 27.305 36.878 84.57 8.0277 118.41-42.339 49.659-119.37 44.736-164.57 2.0069-60.248-56.95-52.722-154.34 4.0138-210.73 71.396-70.961 189.39-60.776 256.89 10.035 2.8793 3.0209 5.6623 6.1336 8.344 9.3312" transform="matrix(0 1 -1 0 749.38 -87.17)"/>
   <path data-start="0" data-duration="75" id="path4138-3-6" d="m-372.93-359.35c-15.697 12.075-24.021-15.202-20.069-26.09 10.71-29.505 50.266-29.313 72.249-14.048 39.323 27.305 36.878 84.57 8.0277 118.41-42.339 49.659-119.37 44.735-164.57 2.0069-60.248-56.95-52.722-154.34 4.0138-210.73 71.396-70.961 189.39-60.776 256.89 10.035 2.8793 3.0209 5.6623 6.1336 8.344 9.3312" transform="scale(-1)"/>
   <path data-start="0" data-duration="75" id="path4138-3-6-1" d="m-168.82-171.36c-15.697 12.075-24.021-15.202-20.069-26.09 10.71-29.505 50.266-29.313 72.249-14.048 39.323 27.305 36.878 84.57 8.0277 118.41-42.339 49.659-119.37 44.735-164.57 2.0069-60.248-56.95-52.722-154.34 4.0138-210.73 71.396-70.961 189.39-60.776 256.89 10.035 2.8793 3.0209 5.6623 6.1336 8.344 9.3312" transform="matrix(0 -1 1 0 545.19 191.77)"/>
  </g>
  <g stroke="#B3FFB3">
   <path data-start="0" data-duration="75" id="path4138-3-3" d="m612.25 264.62c-2.6782-3.2002-5.4577-6.3155-8.3336-9.3392-67.482-70.949-185.55-81.192-257.09-10.273-56.974 56.484-64.569 154.11-4.255 211.31 45.38 43.03 122.77 48.027 165.42-1.7888 29.169-34.072 31.683-91.77-7.8706-119.4-22.231-15.532-62.222-15.783-73.193 14.021-4.1113 11.168 4.3918 38.903 20.433 26.563" transform="matrix(0 1.119 -1.119 0 796.41 -137.99)" stroke-width="8.9534"/>
   <g stroke-width="10.019">
    <path data-start="0" data-duration="75" id="path4138-3-3-1" d="m-183.92-487.17c-2.9969-3.581-6.1072-7.0671-9.3254-10.451-75.513-79.393-207.64-90.854-287.68-11.496-63.754 63.206-72.254 172.46-4.7614 236.45 50.781 48.151 137.39 53.743 185.11-2.0017 32.641-38.127 35.454-102.69-8.8073-133.61-24.877-17.381-69.627-17.661-81.904 15.69-4.6006 12.497 4.9144 43.533 22.865 29.725" transform="scale(-1)"/>
    <path data-start="0" data-duration="75" id="path4138-3-3-1-6" d="m-387.9-292.01c-2.9969-3.581-6.1072-7.0671-9.3254-10.451-75.513-79.393-207.64-90.854-287.68-11.496-63.754 63.206-72.254 172.46-4.7614 236.45 50.781 48.151 137.39 53.743 185.11-2.0017 32.641-38.127 35.454-102.69-8.8073-133.61-24.877-17.381-69.627-17.661-81.904 15.69-4.6006 12.497 4.9144 43.533 22.865 29.725" transform="matrix(0 -1 1 0 538.91 -214.19)"/>
    <path data-start="0" data-duration="75" id="path4138-3-3-1-6-5" d="m560.36 234.69c-2.9969-3.581-6.1072-7.0671-9.3254-10.451-75.513-79.393-207.64-90.854-287.68-11.496-63.754 63.206-72.254 172.46-4.7614 236.45 50.781 48.151 137.39 53.743 185.11-2.0017 32.641-38.127 35.454-102.69-8.8073-133.61-24.877-17.381-69.627-17.661-81.904 15.69-4.6006 12.497 4.9144 43.533 22.865 29.725"/>
   </g>
  </g>
 </g>
</svg>
